<?xml version="1.0" standalone="no"?>
<!DOCTYPE svg PUBLIC "-//W3C//DTD SVG 20010904//EN"
 "http://www.w3.org/TR/2001/REC-SVG-20010904/DTD/svg10.dtd">
<svg version="1.0" xmlns="http://www.w3.org/2000/svg"
 width="500.000000pt" height="500.000000pt" viewBox="0 0 500.000000 500.000000"
 preserveAspectRatio="xMidYMid meet">

<g transform="translate(0.000000,500.000000) scale(0.100000,-0.100000)"
fill="#000000" stroke="none">
<path d="M0 2500 l0 -2500 2500 0 2500 0 0 2500 0 2500 -2500 0 -2500 0 0
-2500z m2045 1050 c-3 -5 -14 -10 -23 -10 -19 0 -136 -113 -138 -133 0 -6 -2
-18 -2 -25 -1 -8 -11 -12 -24 -10 -32 4 -33 52 -2 56 12 2 48 32 80 66 44 47
66 64 87 65 17 1 26 -3 22 -9z m333 -63 c43 -43 72 -80 71 -92 0 -14 -2 -16
-6 -5 -3 8 -37 48 -76 88 l-71 72 -85 0 c-79 0 -87 -2 -113 -27 -15 -15 -28
-35 -28 -45 0 -25 -28 -34 -47 -15 -13 13 -14 19 -3 31 7 9 20 16 29 16 10 0
28 11 41 25 22 23 30 25 119 25 l97 0 72 -73z m87 63 c-3 -5 -12 -10 -20 -10
-8 0 -17 5 -20 10 -4 6 5 10 20 10 15 0 24 -4 20 -10z m102 -1 c-14 -8 -22 -8
-30 0 -8 8 -3 11 19 11 25 -1 27 -2 11 -11z m332 -13 c13 -14 35 -26 50 -28
20 -2 26 -8 26 -28 0 -31 -38 -36 -43 -5 -2 11 -16 32 -30 48 -24 25 -31 27
-112 27 l-87 0 -82 -85 c-44 -46 -81 -79 -81 -72 0 6 35 47 77 89 l78 78 91 0
c83 0 92 -2 113 -24z m152 -41 c34 -36 70 -65 79 -65 23 0 44 -26 36 -46 -10
-25 -50 -14 -54 16 -4 26 -108 141 -127 139 -22 -3 -35 1 -35 11 0 28 45 3
101 -55z m-760 -32 l24 -28 -26 23 c-19 16 -38 22 -76 22 l-51 0 -74 -82 c-42
-46 -78 -93 -82 -105 -5 -16 -15 -23 -32 -23 -36 0 -34 44 4 58 15 6 63 44
107 86 78 73 82 75 131 76 43 0 54 -4 75 -27z m629 -55 c47 -45 90 -82 95 -83
6 -1 16 -3 23 -3 8 -1 12 -11 10 -24 -4 -31 -51 -33 -56 -3 -2 11 -40 57 -85
103 -79 79 -83 82 -128 82 -33 0 -51 -6 -64 -20 -10 -11 -23 -20 -28 -20 -6 0
0 11 13 25 20 21 32 25 79 25 l56 -1 85 -81z m-710 11 c-14 -5 -89 -74 -167
-152 l-143 -142 0 -52 c0 -31 4 -53 11 -53 21 0 4 -45 -19 -48 -29 -4 -40 23
-18 47 11 12 16 35 16 72 l-1 54 148 142 c111 107 154 142 173 142 l25 0 -25
-10z m752 -136 l148 -148 0 -49 c0 -30 6 -56 15 -66 20 -23 9 -50 -21 -50 -19
0 -24 5 -24 24 0 14 5 28 10 31 6 3 10 27 10 53 l0 47 -142 142 c-79 78 -154
147 -168 152 l-25 10 25 0 c19 1 59 -33 172 -146z m-982 122 c16 -19 6 -45
-18 -45 -10 0 -42 -24 -71 -54 -47 -48 -51 -56 -40 -73 16 -26 5 -53 -21 -53
-52 0 -29 68 49 145 28 27 51 57 51 66 0 15 12 26 31 28 4 1 12 -6 19 -14z
m1078 3 c7 -7 12 -19 12 -28 0 -9 23 -38 51 -65 28 -28 57 -63 66 -79 13 -25
13 -30 0 -44 -9 -8 -23 -12 -31 -9 -19 7 -21 38 -4 55 10 10 0 24 -42 67 -30
30 -62 55 -72 55 -24 0 -34 26 -18 45 15 18 22 19 38 3z m-637 -59 l78 -51 74
52 c72 50 75 51 125 44 28 -3 58 -12 66 -18 8 -6 44 -56 79 -110 l65 -99 -16
-42 -16 -43 47 -62 46 -63 -72 -79 c-40 -44 -72 -82 -72 -86 0 -4 6 -40 13
-79 l14 -73 -47 -55 c-26 -30 -52 -55 -58 -55 -6 0 -57 35 -113 78 -77 57
-105 84 -109 105 -17 87 -17 83 10 95 27 13 118 93 112 99 -3 2 -37 -8 -77
-23 l-72 -26 -70 26 c-39 15 -73 24 -76 22 -8 -9 20 -37 79 -77 l56 -38 -9
-53 c-5 -29 -10 -53 -11 -54 -1 0 -47 -35 -103 -77 -56 -42 -106 -77 -111 -77
-20 0 -103 99 -103 122 1 13 7 51 14 85 11 53 11 64 0 74 -8 7 -41 42 -74 79
l-60 68 46 62 46 63 -16 40 -16 41 66 103 c71 111 72 113 118 124 56 13 69 9
147 -42z m629 -351 c0 -76 4 -125 12 -138 10 -16 10 -23 -5 -37 -16 -16 -18
-16 -34 0 -15 14 -15 21 -5 37 8 13 12 62 12 138 l0 118 -51 49 c-28 28 -60
64 -71 80 -12 17 16 -6 60 -50 l82 -80 0 -117z m-969 235 c-10 -16 -40 -48
-65 -73 l-46 -44 0 -118 c0 -76 4 -125 12 -138 10 -16 10 -23 -3 -35 -21 -21
-49 -9 -49 21 0 13 5 24 10 24 6 0 10 47 10 122 l0 123 72 72 c40 40 74 73 76
73 2 0 -6 -12 -17 -27z m-257 -119 c8 -20 -10 -44 -32 -44 -24 0 -52 -31 -52
-57 0 -18 -5 -23 -24 -23 -13 0 -27 7 -30 16 -8 20 10 44 32 44 21 0 52 29 52
50 0 9 3 20 7 23 12 13 41 7 47 -9z m1404 -9 c5 -28 30 -53 56 -57 29 -4 30
-52 0 -56 -14 -2 -24 6 -35 30 -7 18 -25 38 -37 44 -35 17 -45 31 -38 49 8 23
50 15 54 -10z m-1308 -210 c0 -18 -7 -26 -24 -31 -29 -7 -53 -31 -58 -59 -2
-14 -11 -20 -28 -20 -20 0 -25 5 -25 25 0 17 6 26 20 28 27 5 55 31 55 52 0
23 9 30 37 30 18 0 23 -5 23 -25z m1218 -1 c4 -26 29 -50 57 -56 14 -2 20 -11
20 -28 0 -20 -5 -25 -25 -25 -17 0 -26 6 -28 20 -6 28 -30 53 -56 57 -15 2
-22 11 -24 31 -3 26 -1 28 25 25 20 -2 29 -9 31 -24z m-1088 -74 c0 -32 -4
-61 -9 -64 -4 -3 -11 -19 -15 -37 -5 -25 -10 -30 -28 -27 -35 5 -36 43 -1 60
26 12 28 18 31 76 4 79 22 72 22 -8z m950 -70 c18 -4 25 -12 25 -30 0 -20 -5
-25 -25 -25 -19 0 -26 6 -28 25 -2 14 -8 29 -13 35 -11 11 -12 118 -1 129 4 4
9 -23 12 -60 5 -63 7 -69 30 -74z m-890 5 c0 -49 -2 -53 -65 -115 -57 -57 -65
-69 -65 -102 0 -21 5 -47 12 -57 15 -24 4 -51 -22 -51 -26 0 -37 27 -22 51 7
10 12 38 12 62 0 39 5 48 65 107 l65 64 0 61 c0 42 3 56 10 45 5 -8 10 -38 10
-65z m865 -105 c60 -59 65 -68 65 -107 0 -24 5 -52 12 -62 15 -24 4 -51 -22
-51 -26 0 -37 27 -22 51 7 10 12 36 12 57 0 33 -8 45 -65 102 -65 64 -65 65
-65 121 0 76 14 85 18 12 3 -58 4 -61 67 -123z m-1020 125 c0 -11 -10 -25 -23
-31 -50 -25 -82 -66 -82 -105 0 -21 5 -41 10 -44 16 -10 11 -34 -9 -45 -15 -7
-24 -6 -36 6 -14 15 -14 18 0 40 8 13 15 38 15 57 0 25 9 42 35 67 19 19 35
41 35 50 0 23 11 31 35 28 12 -2 20 -10 20 -23z m1143 -1 c2 -12 19 -36 38
-54 27 -27 34 -42 34 -71 0 -21 5 -41 10 -44 14 -9 12 -52 -2 -58 -21 -7 -48
12 -48 33 0 11 5 20 10 20 6 0 10 17 10 37 0 28 -8 45 -32 70 -18 18 -40 33
-50 33 -21 0 -33 23 -24 46 9 23 50 14 54 -12z m-481 -202 l101 -57 -46 -73
c-42 -66 -48 -71 -59 -56 -12 17 -17 14 -63 -31 l-50 -49 -50 49 c-47 46 -51
48 -63 31 -13 -17 -18 -13 -60 55 -41 66 -44 75 -29 83 148 84 189 106 202
105 8 0 61 -26 117 -57z m-546 22 c10 -12 10 -20 1 -35 -7 -10 -12 -48 -12
-83 0 -36 -5 -68 -10 -71 -6 -4 -17 -22 -25 -41 -11 -28 -19 -35 -37 -32 -34
5 -32 52 2 56 14 2 31 9 38 14 17 15 15 128 -3 152 -28 37 16 76 46 40z m49
-161 c0 -92 -5 -172 -10 -177 -6 -6 -10 -18 -10 -28 0 -21 -31 -40 -49 -29
-22 14 -9 55 19 61 l25 6 3 159 c1 88 4 166 7 174 13 34 17 -9 15 -166z m858
144 c2 -15 -1 -27 -7 -27 -15 0 -14 -133 1 -148 7 -7 22 -12 35 -12 30 0 41
-27 20 -47 -20 -20 -45 -11 -57 21 -5 13 -14 27 -19 31 -6 3 -11 37 -11 76 0
38 -5 78 -12 88 -9 15 -9 23 2 36 19 23 44 14 48 -18z m-78 -147 l5 -164 25
-6 c28 -7 38 -34 20 -55 -15 -19 -50 -2 -50 23 0 10 -4 22 -9 28 -13 13 -19
345 -6 341 6 -2 12 -72 15 -167z m-690 19 c0 -62 2 -69 20 -69 28 0 43 -32 25
-56 -17 -24 -46 -10 -56 27 -11 39 -10 181 1 174 6 -3 10 -37 10 -76z m593
-90 c-12 -44 -37 -59 -60 -36 -21 21 -8 50 26 55 19 3 21 9 21 71 0 37 3 71 8
75 10 11 14 -127 5 -165z m-445 -14 c2 -11 20 -37 40 -58 l36 -37 -62 -63
c-60 -61 -62 -64 -62 -115 0 -29 5 -61 12 -71 22 -36 -25 -68 -52 -36 -10 12
-9 20 4 40 10 14 16 45 16 77 0 50 2 55 57 110 l57 58 -29 30 c-16 16 -37 30
-47 30 -21 0 -33 23 -24 46 8 22 50 14 54 -11z m337 -5 c0 -18 -6 -26 -21 -28
-12 -2 -34 -16 -50 -33 l-28 -29 57 -58 c55 -56 57 -59 57 -113 0 -30 5 -60
11 -66 18 -18 6 -58 -19 -61 -27 -4 -40 23 -24 49 7 10 12 42 12 71 0 51 -2
54 -62 115 l-62 63 39 40 c21 22 36 40 32 40 -4 0 -3 9 3 21 16 29 55 22 55
-11z m-390 -80 c0 -18 -6 -26 -21 -28 -11 -2 -38 -21 -60 -43 -34 -34 -37 -42
-26 -59 23 -38 5 -68 -33 -54 -17 7 -20 40 -5 49 6 3 10 14 10 24 0 9 18 35
40 56 24 24 40 48 40 63 0 20 4 23 28 20 21 -2 27 -8 27 -28z m443 4 c2 -11
21 -38 42 -59 22 -22 40 -45 40 -52 0 -7 6 -22 12 -33 10 -16 10 -23 -4 -36
-9 -9 -24 -14 -32 -11 -19 7 -21 48 -4 65 9 9 3 21 -27 52 -21 22 -47 40 -57
40 -21 0 -33 23 -24 46 9 23 50 14 54 -12z m-168 -112 c1 -9 14 -33 30 -52 44
-51 38 -100 -10 -85 -22 7 -26 35 -8 53 14 14 -16 52 -42 52 -16 0 -40 18 -40
31 0 4 7 15 16 23 19 19 54 5 54 -22z m-102 1 c-2 -20 -9 -29 -24 -31 -12 -2
-29 -11 -39 -22 -14 -15 -14 -21 -4 -38 23 -37 -23 -70 -51 -37 -10 12 -7 22
16 57 38 54 42 60 48 81 3 10 15 17 31 17 23 0 26 -4 23 -27z m-1138 -538 l0
-115 30 0 c17 0 44 7 60 15 28 15 30 14 30 -5 0 -19 -6 -20 -95 -20 l-95 0 0
120 0 120 35 0 35 0 0 -115z m1580 26 c0 -105 -3 -117 -41 -136 -35 -19 -58
-20 -41 -3 8 8 12 49 12 120 l0 108 35 0 35 0 0 -89z m430 -31 l0 -120 -35 0
-35 0 0 120 0 120 35 0 35 0 0 -120z m-1744 61 c-33 -37 -28 -151 7 -173 23
-15 -13 -9 -43 7 -61 32 -72 112 -21 157 17 15 41 28 53 28 20 0 20 -1 4 -19z
m77 8 c28 -13 49 -51 41 -74 -4 -9 -18 -15 -35 -15 -27 0 -29 3 -29 38 0 21
-5 43 -12 50 -16 16 2 16 35 1z m192 -9 c-25 -27 -31 -97 -12 -143 17 -39 11
-45 -26 -25 -35 18 -46 40 -47 86 0 35 6 49 29 73 16 16 40 29 52 29 21 0 21
-1 4 -20z m106 -9 c23 -23 29 -38 29 -71 0 -33 -6 -48 -29 -71 -16 -16 -39
-29 -51 -29 -19 0 -20 2 -6 15 32 33 32 130 -2 168 -28 31 26 21 59 -12z m166
9 c5 -20 5 -20 30 0 29 22 83 26 101 8 8 -8 12 -45 12 -100 l0 -88 -30 0 c-30
0 -30 0 -30 59 0 114 -18 144 -62 104 -14 -13 -18 -31 -18 -90 l0 -73 -35 0
-35 0 0 100 0 100 31 0 c22 0 32 -5 36 -20z m296 -6 c-23 -36 -22 -128 2 -154
20 -23 7 -27 -28 -9 -63 32 -77 111 -28 160 16 16 39 29 50 29 21 0 21 -1 4
-26z m102 1 c14 -13 25 -36 25 -50 0 -22 -4 -25 -32 -25 -31 0 -33 3 -35 36
-1 19 -7 42 -14 50 -21 26 29 16 56 -11z m530 5 c-25 -27 -31 -97 -12 -143 17
-39 11 -45 -26 -25 -35 18 -46 40 -47 86 0 35 6 49 29 73 16 16 40 29 52 29
21 0 21 -1 4 -20z m106 -9 c23 -23 29 -38 29 -71 0 -33 -6 -48 -29 -71 -16
-16 -39 -29 -51 -29 -19 0 -20 2 -6 15 32 33 32 130 -2 168 -28 31 26 21 59
-12z m273 13 c33 -33 33 -128 0 -165 -18 -20 -78 -26 -89 -9 -3 6 2 10 13 10
24 0 42 39 42 94 0 51 -21 76 -45 56 -20 -16 -19 -6 1 14 20 20 58 20 78 0z
m266 -4 c0 -19 -2 -20 -30 -5 -32 17 -90 20 -90 5 0 -5 12 -17 26 -27 57 -39
104 -86 104 -104 0 -10 -10 -25 -22 -33 -28 -20 -39 -20 -32 -2 3 8 -10 25
-32 43 -71 53 -104 90 -98 108 10 24 40 34 112 34 56 1 62 -1 62 -19z m-1176
-167 c-10 -7 -26 -13 -36 -13 -14 0 -11 6 14 29 27 24 34 27 37 13 2 -8 -5
-22 -15 -29z m-824 22 c0 -16 -30 -35 -55 -35 -12 0 -8 7 12 25 32 28 43 31
43 10z m1881 -15 l44 -20 -45 2 c-33 2 -46 7 -48 21 -4 21 -4 21 49 -3z m-815
-5 l29 -15 -32 0 c-23 0 -33 5 -33 15 0 18 1 18 36 0z m-661 -131 c21 -21 13
-29 -13 -13 -29 18 -54 4 -50 -27 4 -38 31 -53 56 -31 25 23 35 22 22 -3 -15
-27 -75 -28 -90 -1 -14 28 -12 52 7 73 20 22 46 23 68 2z m473 0 c24 -17 30
-62 10 -82 -7 -7 -27 -12 -45 -12 -34 0 -53 21 -53 59 0 19 34 51 55 51 6 0
21 -7 33 -16z m300 0 c43 -30 21 -94 -31 -94 -40 0 -57 15 -57 51 0 27 30 59
55 59 6 0 21 -7 33 -16z m160 4 c19 -19 14 -30 -7 -17 -28 18 -53 4 -49 -27 4
-38 33 -54 55 -31 16 16 16 17 -10 17 -15 0 -27 5 -27 10 0 6 16 10 35 10 32
0 35 -3 35 -28 0 -27 -3 -29 -41 -30 -49 -2 -69 11 -69 46 0 47 49 79 78 50z
m-1220 -5 c-14 -3 -18 -15 -18 -49 0 -24 -4 -44 -10 -44 -5 0 -10 20 -10 44 0
38 -3 45 -22 49 -13 2 0 4 27 4 28 1 42 -1 33 -4z m120 0 c-16 -2 -28 -11 -28
-19 0 -8 11 -15 28 -15 l27 -2 -27 -4 c-35 -5 -37 -33 -3 -33 14 0 25 -4 25
-10 0 -5 -16 -10 -35 -10 l-35 0 0 50 0 50 38 -1 c30 -2 32 -3 10 -6z m292
-33 c13 0 20 7 20 20 0 11 5 20 10 20 6 0 10 -22 10 -50 0 -27 -4 -50 -10 -50
-5 0 -10 12 -10 26 0 20 -4 25 -22 22 -14 -2 -25 -13 -29 -28 -5 -17 -7 -8 -7
30 -1 42 1 50 8 33 6 -13 18 -23 30 -23z m157 2 l22 -37 1 38 c0 20 5 37 10
37 6 0 10 -22 10 -50 0 -61 -17 -66 -48 -12 l-22 37 0 -37 c0 -21 -4 -38 -10
-38 -5 0 -10 23 -10 50 0 61 16 65 47 12z m293 -2 c0 -36 3 -40 25 -40 14 0
25 -4 25 -10 0 -5 -16 -10 -35 -10 l-35 0 0 50 c0 28 5 50 10 50 6 0 10 -18
10 -40z m476 18 l7 -22 19 23 c23 30 36 20 14 -11 -9 -12 -16 -33 -16 -45 0
-13 -4 -23 -10 -23 -5 0 -10 10 -10 23 0 12 -7 31 -15 41 -17 23 -19 36 -6 36
5 0 13 -10 17 -22z"/>
<path d="M2288 3377 c-47 -9 -49 -11 -113 -111 l-65 -102 16 -42 17 -41 -43
-57 c-50 -67 -49 -71 39 -158 l57 -57 -15 -85 -15 -85 45 -44 44 -44 80 60
c44 34 88 67 99 74 10 8 22 32 26 55 7 40 6 41 -35 70 -38 26 -157 141 -151
147 1 1 52 -16 114 -39 l113 -40 111 41 c61 23 113 40 115 38 4 -4 -132 -134
-169 -162 -24 -18 -26 -24 -20 -57 6 -32 20 -47 106 -113 l99 -76 25 23 c61
57 65 70 48 155 l-14 78 42 45 c23 25 54 60 70 77 l29 32 -42 61 -43 61 15 42
14 42 -63 100 -63 100 -53 11 -53 10 -78 -54 -78 -54 -82 54 c-80 53 -83 54
-129 45z m55 -262 c33 -5 36 -8 27 -25 -15 -28 -40 -25 -80 10 -33 28 -33 30
-10 26 14 -3 42 -8 63 -11z m367 -15 c-41 -34 -65 -38 -80 -10 -9 17 -6 20 27
25 21 4 45 8 53 10 34 7 34 3 0 -25z"/>
<path d="M2400 2559 c-47 -27 -84 -53 -82 -59 1 -6 14 -30 29 -53 23 -36 27
-39 37 -24 9 15 17 11 63 -35 l53 -52 49 48 c41 40 53 47 64 37 12 -9 18 -6
31 14 53 82 58 67 -47 124 -52 28 -98 51 -103 50 -5 0 -47 -23 -94 -50z"/>
<path d="M2542 1358 c-29 -29 3 -82 36 -61 25 15 22 67 -3 71 -11 1 -26 -3
-33 -10z"/>
<path d="M2837 1363 c-13 -12 -7 -50 9 -64 31 -26 70 25 44 56 -13 16 -42 20
-53 8z"/>
</g>
</svg>
